{"accessors" : [{"bufferView" : 0, "byteOffset" : 0, "componentType" : 5123, "count" : 180, "type" : "SCALAR", "max" : [179], "min" : [0]}, {"bufferView" : 1, "byteOffset" : 0, "componentType" : 5126, "count" : 180, "type" : "VEC3", "max" : [64.46078491210938, 10.049018859863281, 11.7647066116333], "min" : [-64.46078491210938, -10.049018859863281, 0], "name" : "POSITION"}, {"bufferView" : 1, "byteOffset" : 12, "componentType" : 5126, "count" : 180, "type" : "VEC3", "max" : [1.0000044107437134, 1.0000044107437134, 1.0000044107437134], "min" : [-1.0000044107437134, -1.0000044107437134, -1.0000044107437134], "name" : "NORMAL"}, {"bufferView" : 1, "byteOffset" : 24, "componentType" : 5126, "count" : 180, "type" : "VEC2", "max" : [1, -0], "min" : [0, -1], "name" : "TEXCOORD_0"}, {"bufferView" : 0, "byteOffset" : 360, "componentType" : 5123, "count" : 18738, "type" : "SCALAR", "max" : [18737], "min" : [0]}, {"bufferView" : 2, "byteOffset" : 0, "componentType" : 5126, "count" : 18738, "type" : "VEC3", "max" : [110.18293762207031, 645.6054077148438, 26.00001335144043], "min" : [-154.54522705078125, -235.9884796142578, -5.791559487988707E-06], "name" : "POSITION"}, {"bufferView" : 2, "byteOffset" : 12, "componentType" : 5126, "count" : 18738, "type" : "VEC3", "max" : [1.0000038146972656, 0.999077320098877, 1.0000044107437134], "min" : [-1.0000039339065552, -0.9946724772453308, -1.0000044107437134], "name" : "NORMAL"}, {"bufferView" : 2, "byteOffset" : 24, "componentType" : 5126, "count" : 18738, "type" : "VEC2", "max" : [0.2959862947463989, -0.019999999552965164], "min" : [0.019999999552965164, -0.9799999594688416], "name" : "TEXCOORD_0"}, {"bufferView" : 0, "byteOffset" : 37836, "componentType" : 5123, "count" : 18738, "type" : "SCALAR", "max" : [18737], "min" : [0]}, {"bufferView" : 3, "byteOffset" : 0, "componentType" : 5126, "count" : 18738, "type" : "VEC3", "max" : [110.18293762207031, 645.6054077148438, 26.00001335144043], "min" : [-154.54522705078125, -235.9884796142578, -5.791559487988707E-06], "name" : "POSITION"}, {"bufferView" : 3, "byteOffset" : 12, "componentType" : 5126, "count" : 18738, "type" : "VEC3", "max" : [1.0000038146972656, 0.999077320098877, 1.0000044107437134], "min" : [-1.0000039339065552, -0.9946724772453308, -1.0000044107437134], "name" : "NORMAL"}, {"bufferView" : 3, "byteOffset" : 24, "componentType" : 5126, "count" : 18738, "type" : "VEC2", "max" : [0.2959862947463989, -0.019999999552965164], "min" : [0.019999999552965164, -0.9799999594688416], "name" : "TEXCOORD_0"}, {"bufferView" : 0, "byteOffset" : 75312, "componentType" : 5123, "count" : 384, "type" : "SCALAR", "max" : [383], "min" : [0]}, {"bufferView" : 4, "byteOffset" : 0, "componentType" : 5126, "count" : 384, "type" : "VEC3", "max" : [11.382026672363281, 38.35314178466797, 9.247025489807129], "min" : [-11.115445137023926, -36.325584411621094, 0], "name" : "POSITION"}, {"bufferView" : 4, "byteOffset" : 12, "componentType" : 5126, "count" : 384, "type" : "VEC3", "max" : [1.0000044107437134, 0.99949711561203, 1.0000044107437134], "min" : [-1.0000044107437134, -0.9985077381134033, -1.0000044107437134], "name" : "NORMAL"}, {"bufferView" : 4, "byteOffset" : 24, "componentType" : 5126, "count" : 384, "type" : "VEC2", "max" : [1, -0], "min" : [0, -1], "name" : "TEXCOORD_0"}, {"bufferView" : 0, "byteOffset" : 76080, "componentType" : 5123, "count" : 384, "type" : "SCALAR", "max" : [383], "min" : [0]}, {"bufferView" : 5, "byteOffset" : 0, "componentType" : 5126, "count" : 384, "type" : "VEC3", "max" : [11.382026672363281, 38.35314178466797, 9.247025489807129], "min" : [-11.115445137023926, -36.325584411621094, 0], "name" : "POSITION"}, {"bufferView" : 5, "byteOffset" : 12, "componentType" : 5126, "count" : 384, "type" : "VEC3", "max" : [1.0000044107437134, 0.99949711561203, 1.0000044107437134], "min" : [-1.0000044107437134, -0.9985077381134033, -1.0000044107437134], "name" : "NORMAL"}, {"bufferView" : 5, "byteOffset" : 24, "componentType" : 5126, "count" : 384, "type" : "VEC2", "max" : [1, -0], "min" : [0, -1], "name" : "TEXCOORD_0"}, {"bufferView" : 0, "byteOffset" : 76848, "componentType" : 5123, "count" : 384, "type" : "SCALAR", "max" : [383], "min" : [0]}, {"bufferView" : 6, "byteOffset" : 0, "componentType" : 5126, "count" : 384, "type" : "VEC3", "max" : [11.382026672363281, 38.35314178466797, 9.247025489807129], "min" : [-11.115445137023926, -36.325584411621094, 0], "name" : "POSITION"}, {"bufferView" : 6, "byteOffset" : 12, "componentType" : 5126, "count" : 384, "type" : "VEC3", "max" : [1.0000044107437134, 0.99949711561203, 1.0000044107437134], "min" : [-1.0000044107437134, -0.9985077381134033, -1.0000044107437134], "name" : "NORMAL"}, {"bufferView" : 6, "byteOffset" : 24, "componentType" : 5126, "count" : 384, "type" : "VEC2", "max" : [1, -0], "min" : [0, -1], "name" : "TEXCOORD_0"}, {"bufferView" : 0, "byteOffset" : 77616, "componentType" : 5123, "count" : 384, "type" : "SCALAR", "max" : [383], "min" : [0]}, {"bufferView" : 7, "byteOffset" : 0, "componentType" : 5126, "count" : 384, "type" : "VEC3", "max" : [11.382026672363281, 38.35314178466797, 9.247025489807129], "min" : [-11.115445137023926, -36.325584411621094, 0], "name" : "POSITION"}, {"bufferView" : 7, "byteOffset" : 12, "componentType" : 5126, "count" : 384, "type" : "VEC3", "max" : [1.0000044107437134, 0.99949711561203, 1.0000044107437134], "min" : [-1.0000044107437134, -0.9985077381134033, -1.0000044107437134], "name" : "NORMAL"}, {"bufferView" : 7, "byteOffset" : 24, "componentType" : 5126, "count" : 384, "type" : "VEC2", "max" : [1, -0], "min" : [0, -1], "name" : "TEXCOORD_0"}, {"bufferView" : 0, "byteOffset" : 78384, "componentType" : 5123, "count" : 384, "type" : "SCALAR", "max" : [383], "min" : [0]}, {"bufferView" : 8, "byteOffset" : 0, "componentType" : 5126, "count" : 384, "type" : "VEC3", "max" : [11.382026672363281, 38.35314178466797, 9.247025489807129], "min" : [-11.115445137023926, -36.325584411621094, 0], "name" : "POSITION"}, {"bufferView" : 8, "byteOffset" : 12, "componentType" : 5126, "count" : 384, "type" : "VEC3", "max" : [1.0000044107437134, 0.99949711561203, 1.0000044107437134], "min" : [-1.0000044107437134, -0.9985077381134033, -1.0000044107437134], "name" : "NORMAL"}, {"bufferView" : 8, "byteOffset" : 24, "componentType" : 5126, "count" : 384, "type" : "VEC2", "max" : [1, -0], "min" : [0, -1], "name" : "TEXCOORD_0"}, {"bufferView" : 0, "byteOffset" : 79152, "componentType" : 5123, "count" : 384, "type" : "SCALAR", "max" : [383], "min" : [0]}, {"bufferView" : 9, "byteOffset" : 0, "componentType" : 5126, "count" : 384, "type" : "VEC3", "max" : [11.382026672363281, 38.35314178466797, 9.247025489807129], "min" : [-11.115445137023926, -36.325584411621094, 0], "name" : "POSITION"}, {"bufferView" : 9, "byteOffset" : 12, "componentType" : 5126, "count" : 384, "type" : "VEC3", "max" : [1.0000044107437134, 0.99949711561203, 1.0000044107437134], "min" : [-1.0000044107437134, -0.9985077381134033, -1.0000044107437134], "name" : "NORMAL"}, {"bufferView" : 9, "byteOffset" : 24, "componentType" : 5126, "count" : 384, "type" : "VEC2", "max" : [1, -0], "min" : [0, -1], "name" : "TEXCOORD_0"}], "asset" : {"generator" : "Aspose.3D 22.1", "version" : "2.0"}, "buffers" : [{"uri" : "data:application/octet-stream;base64,", "byteLength" : 1358680}], "bufferViews" : [{"buffer" : 0, "byteOffset" : 0, "byteLength" : 79920, "target" : 34963}, {"buffer" : 0, "byteOffset" : 79924, "byteLength" : 5760, "byteStride" : 32, "target" : 34962}, {"buffer" : 0, "byteOffset" : 85688, "byteLength" : 599616, "byteStride" : 32, "target" : 34962}, {"buffer" : 0, "byteOffset" : 685308, "byteLength" : 599616, "byteStride" : 32, "target" : 34962}, {"buffer" : 0, "byteOffset" : 1284928, "byteLength" : 12288, "byteStride" : 32, "target" : 34962}, {"buffer" : 0, "byteOffset" : 1297220, "byteLength" : 12288, "byteStride" : 32, "target" : 34962}, {"buffer" : 0, "byteOffset" : 1309512, "byteLength" : 12288, "byteStride" : 32, "target" : 34962}, {"buffer" : 0, "byteOffset" : 1321804, "byteLength" : 12288, "byteStride" : 32, "target" : 34962}, {"buffer" : 0, "byteOffset" : 1334096, "byteLength" : 12288, "byteStride" : 32, "target" : 34962}, {"buffer" : 0, "byteOffset" : 1346388, "byteLength" : 12288, "byteStride" : 32, "target" : 34962}], "materials" : [{"name" : "", "pbrMetallicRoughness" : {"baseColorFactor" : [0, 0, 0, 1], "metallicFactor" : 0, "roughnessFactor" : 0}, "emissiveFactor" : [0, 0, 0], "alphaMode" : "OPAQUE", "doubleSided" : false}, {"name" : "", "pbrMetallicRoughness" : {"baseColorFactor" : [0, 0, 0, 1], "metallicFactor" : 0, "roughnessFactor" : 0}, "emissiveFactor" : [0, 0, 0], "alphaMode" : "OPAQUE", "doubleSided" : false}, {"name" : "", "pbrMetallicRoughness" : {"baseColorFactor" : [0, 0, 0, 1], "metallicFactor" : 0, "roughnessFactor" : 0}, "emissiveFactor" : [0, 0, 0], "alphaMode" : "OPAQUE", "doubleSided" : false}, {"name" : "", "pbrMetallicRoughness" : {"baseColorFactor" : [0, 0, 0, 1], "metallicFactor" : 0, "roughnessFactor" : 0}, "emissiveFactor" : [0, 0, 0], "alphaMode" : "OPAQUE", "doubleSided" : false}, {"name" : "", "pbrMetallicRoughness" : {"baseColorFactor" : [0, 0, 0, 1], "metallicFactor" : 0, "roughnessFactor" : 0}, "emissiveFactor" : [0, 0, 0], "alphaMode" : "OPAQUE", "doubleSided" : false}, {"name" : "", "pbrMetallicRoughness" : {"baseColorFactor" : [0, 0, 0, 1], "metallicFactor" : 0, "roughnessFactor" : 0}, "emissiveFactor" : [0, 0, 0], "alphaMode" : "OPAQUE", "doubleSided" : false}, {"name" : "", "pbrMetallicRoughness" : {"baseColorFactor" : [0, 0, 0, 1], "metallicFactor" : 0, "roughnessFactor" : 0}, "emissiveFactor" : [0, 0, 0], "alphaMode" : "OPAQUE", "doubleSided" : false}, {"name" : "", "pbrMetallicRoughness" : {"baseColorFactor" : [0, 0, 0, 1], "metallicFactor" : 0, "roughnessFactor" : 0}, "emissiveFactor" : [0, 0, 0], "alphaMode" : "OPAQUE", "doubleSided" : false}, {"name" : "", "pbrMetallicRoughness" : {"baseColorFactor" : [0, 0, 0, 1], "metallicFactor" : 0, "roughnessFactor" : 0}, "emissiveFactor" : [0, 0, 0], "alphaMode" : "OPAQUE", "doubleSided" : false}], "meshes" : [{"primitives" : [{"attributes" : {"POSITION" : 1, "NORMAL" : 2, "TEXCOORD_0" : 3}, "indices" : 0, "material" : 0, "mode" : 4}], "name" : ""}, {"primitives" : [{"attributes" : {"POSITION" : 5, "NORMAL" : 6, "TEXCOORD_0" : 7}, "indices" : 4, "material" : 1, "mode" : 4}], "name" : ""}, {"primitives" : [{"attributes" : {"POSITION" : 9, "NORMAL" : 10, "TEXCOORD_0" : 11}, "indices" : 8, "material" : 2, "mode" : 4}], "name" : ""}, {"primitives" : [{"attributes" : {"POSITION" : 13, "NORMAL" : 14, "TEXCOORD_0" : 15}, "indices" : 12, "material" : 3, "mode" : 4}], "name" : ""}, {"primitives" : [{"attributes" : {"POSITION" : 17, "NORMAL" : 18, "TEXCOORD_0" : 19}, "indices" : 16, "material" : 4, "mode" : 4}], "name" : ""}, {"primitives" : [{"attributes" : {"POSITION" : 21, "NORMAL" : 22, "TEXCOORD_0" : 23}, "indices" : 20, "material" : 5, "mode" : 4}], "name" : ""}, {"primitives" : [{"attributes" : {"POSITION" : 25, "NORMAL" : 26, "TEXCOORD_0" : 27}, "indices" : 24, "material" : 6, "mode" : 4}], "name" : ""}, {"primitives" : [{"attributes" : {"POSITION" : 29, "NORMAL" : 30, "TEXCOORD_0" : 31}, "indices" : 28, "material" : 7, "mode" : 4}], "name" : ""}, {"primitives" : [{"attributes" : {"POSITION" : 33, "NORMAL" : 34, "TEXCOORD_0" : 35}, "indices" : 32, "material" : 8, "mode" : 4}], "name" : ""}], "nodes" : [{"matrix" : [1.092664, 0, 0, 0, 0, 1.7449486300336047E-16, -0.785855, 0, 0, 1, 2.220446049250313E-16, 0, -199.05569458007812, 105.51614379882812, 34.28229522705078, 1], "mesh" : 0, "name" : "madero puerta"}, {"matrix" : [-0.7127101867311938, -1.951099104502907E-08, 0.4300162465228339, 0, -0.4300162465228339, 7.010525066533591E-08, -0.7127101867311906, 0, -1.418501838013877E-07, -6.051685999999978, -5.09684144480313E-07, 0, -388.2666931152344, 163.53753662109375, -37.23332214355469, 1], "mesh" : 1, "name" : "muromedioLP"}, {"matrix" : [-0.803036178969463, -9.662511998445367E-09, -0.21909513415437698, 0, 0.21909513415437698, -7.21253159103883E-08, -0.8030361789694599, 0, -7.024907719170986E-08, -6.051685999999977, 5.243705640875798E-07, 0, -17.5404052734375, 163.53753662109375, -37.1885986328125, 1], "mesh" : 2, "name" : "muromedioLP001"}, {"matrix" : [1, 0, 0, 0, 0, -2.433577189438985E-07, 1.4937189999999803, 0, 0, -0.4461189999999941, -7.268201195642088E-08, 0, 54.46632385253906, 2.0626449584960938, -0.9590606689453125, 1], "mesh" : 3, "name" : "puerta1"}, {"matrix" : [0.9999999999999847, -1.3234889800848443E-23, -1.7484555314694907E-07, 0, 2.6117012480110415E-07, -2.433577189438985E-07, 1.4937189999999576, 0, -1.2708126585296131E-14, -0.44611899999999416, -7.268201195642088E-08, 0, 33.15858459472656, 2.0626449584960938, -0.9590606689453125, 1], "mesh" : 4, "name" : "puerta002"}, {"matrix" : [-0.9999999999999365, 3.5762786877479687E-07, -3.1264821284112E-14, 0, 7.005128663252341E-14, 3.264626564988978E-07, 1.4937189999999647, 0, 1.5954458718994285E-07, 0.4461189999999609, -9.750240455168945E-08, 0, 11.664596557617188, -2.0626296997070312, -0.95904541015625, 1], "mesh" : 5, "name" : "puerta005"}, {"matrix" : [1, 0, 0, 0, 0, -2.433577189438985E-07, 1.4937189999999803, 0, 0, -0.4461189999999941, -7.268201195642088E-08, 0, -10.672027587890625, 2.0626449584960938, -0.9590606689453125, 1], "mesh" : 6, "name" : "puerta003"}, {"matrix" : [-0.9999999999999365, 3.5762786877479687E-07, -3.1264821284112E-14, 0, 7.005128663252341E-14, 3.264626564988978E-07, 1.4937189999999647, 0, 1.5954458718994285E-07, 0.4461189999999609, -9.750240455168945E-08, 0, -32.66905212402344, -2.0626373291015625, -0.95904541015625, 1], "mesh" : 7, "name" : "puerta004"}, {"matrix" : [1, 0, 0, 0, 0, -2.433577189438985E-07, 1.4937189999999803, 0, 0, -0.4461189999999941, -7.268201195642088E-08, 0, -54.73283386230469, 2.0626449584960938, -0.9590606689453125, 1], "mesh" : 8, "name" : "puerta006"}, {"children" : [3, 4, 5, 6, 7, 8], "matrix" : [0.8660253998985324, -1.1102230246251565E-16, 0.500000006730587, 0, 0.500000006730587, 1.1102230246251565E-16, -0.8660253998985323, 0, 0, 1, 2.220446049250313E-16, 0, -190.088134765625, 55.130619049072266, 23.398109436035156, 1], "name" : "puerta buena"}], "scene" : 0, "scenes" : [{"nodes" : [0, 1, 2, 9]}]}